<?xml version="1.0" encoding="UTF-8"?>
<svg width="177px" height="32px" viewBox="0 0 177 32" version="1.1" xmlns="http://www.w3.org/2000/svg" xmlns:xlink="http://www.w3.org/1999/xlink">
    <title>Group 28</title>
    <defs>
        <polygon id="path-1" points="0.288792302 0.204 22.5267 0.204 22.5267 22.91217 0.288792302 22.91217"></polygon>
        <polygon id="path-3" points="0 31.896 176.1267 31.896 176.1267 0.3 0 0.3"></polygon>
    </defs>
    <g id="Page-1" stroke="none" stroke-width="1" fill="none" fill-rule="evenodd">
        <g id="Header-Footer" transform="translate(-120.000000, -756.000000)">
            <g id="Page"></g>
            <g id="FOOTER" transform="translate(0.000000, 690.000000)">
                <g id="Group-28" transform="translate(120.000000, 66.000000)">
                    <g id="Group-3" transform="translate(153.600000, 0.096000)">
                        <mask id="mask-2" fill="white">
                            <use xlink:href="#path-1"></use>
                        </mask>
                        <g id="Clip-2"></g>
                        <path d="M0.29256,0.20397 C4.68906,2.70687 9.04566,5.27607 13.43466,7.79127 C16.46136,9.55737 19.50966,11.29107 22.52676,13.07457 C21.20586,13.86507 19.86126,14.61447 18.53646,15.39747 C17.97006,15.07347 17.40576,14.74587 16.84416,14.41557 C17.60226,13.96407 18.36396,13.51617 19.12326,13.06707 C13.42716,9.76647 7.73736,6.45297 2.02626,3.17967 C2.00496,9.42987 2.02386,15.68127 2.01126,21.93147 C1.44846,22.26567 0.89286,22.61187 0.31266,22.91217 C0.26016,19.72647 0.31386,16.53807 0.29256,13.35117 C0.28626,8.96967 0.29646,4.58667 0.29256,0.20397" id="Fill-1" fill="#4377FF" mask="url(#mask-2)"></path>
                    </g>
                    <path d="M148.98066,3.15555 C150.31266,3.93225 151.66506,4.67895 152.98836,5.47215 C153.00576,6.11745 153.00456,6.76395 152.99196,7.41075 C152.19786,7.02045 151.45986,6.53025 150.68436,6.10605 C150.66066,12.71535 150.67926,19.32585 150.67446,25.93515 C156.09036,22.81185 161.49756,19.67475 166.90476,16.53405 C167.47746,16.85295 168.03276,17.20065 168.61056,17.51085 C164.63436,19.86975 160.60296,22.13895 156.61416,24.47925 C156.38046,24.61905 156.13656,24.73935 155.88006,24.82425 C154.81686,25.59735 153.62616,26.16525 152.51046,26.85315 C151.32606,27.51465 150.17646,28.23765 148.98066,28.87545 C148.96326,20.30265 148.96206,11.72985 148.98066,3.15555" id="Fill-4" fill="#1548CD"></path>
                    <path d="M83.30277,5.68971 L86.85507,5.68971 L86.85507,10.91931 C88.50597,10.92051 90.15717,10.91931 91.80837,10.91931 C91.80837,11.91351 91.80837,12.90681 91.80687,13.90131 C90.15717,13.89981 88.50597,13.90131 86.85627,13.90131 C86.85147,16.00011 86.85897,18.10011 86.85267,20.19891 C86.85387,20.86791 86.94657,21.59091 87.37407,22.13271 C87.74187,22.59651 88.35477,22.78671 88.93017,22.78191 C89.81697,22.80681 90.67497,22.49271 91.43427,22.05861 C91.43187,23.18841 91.43307,24.31911 91.43427,25.44831 C90.02727,25.97991 88.47867,26.18781 86.99397,25.91121 C86.04087,25.72851 85.12017,25.26591 84.49737,24.50781 C83.64417,23.48601 83.33517,22.12251 83.28027,20.82051 C83.27787,18.51411 83.28027,16.20771 83.27907,13.90131 C82.63257,13.89981 81.98427,13.90131 81.33897,13.90131 C81.33777,12.90681 81.33777,11.91351 81.33777,10.92051 C81.99327,10.91931 82.64727,10.91931 83.30277,10.92051 L83.30277,5.68971 Z" id="Fill-6" fill="#1548CD"></path>
                    <path d="M133.78479,5.68971 C134.95419,5.68971 136.12389,5.68851 137.29329,5.69091 C137.29329,7.43331 137.29089,9.17691 137.29449,10.91931 C138.95049,10.91931 140.60799,10.92051 142.26519,10.91931 C142.26519,11.91351 142.26279,12.90681 142.26639,13.90131 C140.60919,13.90131 138.95199,13.89981 137.29329,13.90131 C137.29209,15.95991 137.29209,18.01761 137.29329,20.07501 C137.32209,20.76921 137.36589,21.52461 137.80869,22.09761 C138.16269,22.56411 138.75939,22.78191 139.33329,22.78041 C140.16399,22.81941 140.97069,22.54551 141.69969,22.16631 C141.67839,23.28711 141.70749,24.40791 141.68349,25.52841 C140.30289,26.00871 138.79419,26.18271 137.35449,25.89231 C136.27779,25.67241 135.26079,25.06191 134.66649,24.12381 C133.83609,22.85811 133.70589,21.29211 133.70859,19.81851 C133.71099,17.84601 133.70859,15.87351 133.70979,13.90131 L131.28069,13.90131 C131.28579,12.90681 131.28189,11.91231 131.28339,10.91931 C132.11619,10.91931 132.95049,10.92051 133.78479,10.91931 L133.78479,5.68971 Z" id="Fill-8" fill="#1548CD"></path>
                    <path d="M121.158,12.0237 C122.0688,11.0517 123.3906,10.5753 124.6929,10.4514 C126.0912,10.3176 127.5408,10.5453 128.7891,11.2056 C128.748,12.4401 128.8653,13.6836 128.7255,14.9118 C128.0688,14.2401 127.2582,13.6974 126.3375,13.4733 C125.5935,13.2795 124.7241,13.2456 124.0749,13.7184 C123.5346,14.0976 123.4008,14.9343 123.8199,15.4509 C124.2927,16.0662 125.0982,16.224 125.7771,16.509 C127.2045,17.0781 128.7504,17.556 129.8661,18.6666 C131.352,20.1525 131.2095,22.7817 129.8073,24.2763 C128.4702,25.7373 126.3489,26.205 124.44,26.0262 C122.3775,25.8774 120.3813,24.8232 119.1867,23.1219 C119.8623,22.3917 120.5376,21.6612 121.212,20.928 C122.0373,21.9936 123.2418,22.7892 124.5879,22.9869 C125.3994,23.112 126.3138,22.9968 126.9417,22.4253 C127.3971,22.0149 127.5144,21.2658 127.128,20.7717 C126.5802,20.0625 125.6571,19.8537 124.8741,19.512 C123.5457,18.9567 122.0511,18.5655 121.0632,17.4471 C119.7222,15.9612 119.7885,13.4697 121.158,12.0237" id="Fill-10" fill="#1548CD"></path>
                    <path d="M99.60693,10.99056 C100.49373,10.53516 101.51553,10.47906 102.49113,10.56396 C102.49383,11.72106 102.48513,12.87816 102.49623,14.03496 C101.48073,13.85616 100.36473,13.90986 99.48183,14.49276 C98.67393,15.00816 98.17083,15.88986 97.96203,16.80816 C97.69053,17.95986 97.78323,19.15206 97.76823,20.32536 C97.76823,22.11756 97.76703,23.90886 97.76823,25.70106 C96.58863,25.70346 95.40783,25.7025415 94.22853,25.70106 C94.22973,20.77416 94.22733,15.84606 94.22973,10.91796 C95.36673,10.92066 96.50493,10.91916 97.64313,10.91916 C97.64193,11.57586 97.64313,12.23256 97.64193,12.88926 C98.12343,12.10746 98.76003,11.38446 99.60693,10.99056" id="Fill-12" fill="#1548CD"></path>
                    <path d="M104.48499,19.70109 C104.48619,16.77279 104.48259,13.84599 104.48739,10.91799 C105.68079,10.92159 106.87389,10.91799 108.06849,10.91919 L108.06849,18.82029 C108.06729,19.50729 108.02589,20.21889 108.27729,20.87439 C108.56619,21.70989 109.25679,22.40139 110.11599,22.63809 C111.17919,22.93809 112.43889,22.80159 113.28309,22.03989 C113.97219,21.42699 114.26619,20.47899 114.27369,19.57839 C114.27129,16.69149 114.27369,13.80609 114.27249,10.91919 C115.46439,10.92039 116.65659,10.91919 117.84849,10.91919 C117.84849,13.88619 117.84729,16.85439 117.84969,19.82109 C117.81339,21.43089 117.30189,23.10819 116.12349,24.25389 C114.94029,25.46229 113.21169,25.96869 111.55839,26.02509 C109.72329,26.10639 107.76189,25.68219 106.37739,24.40779 C105.07419,23.22459 104.48619,21.42849 104.48499,19.70109" id="Fill-14" fill="#1548CD"></path>
                    <path d="M6.70302,13.5234 C5.58372,13.7547 4.56432,14.4228 3.92142,15.3696 C2.55672,17.3421 2.75052,20.2839 4.47042,21.9861 C5.59602,23.1183 7.33722,23.5209 8.87082,23.1471 C10.09392,22.8795 11.16822,22.0512 11.77362,20.9595 C12.49782,19.6572 12.62682,18.0486 12.16542,16.6365 C11.78112,15.4284 10.89822,14.3715 9.73602,13.8462 C8.79792,13.3971 7.71372,13.3584 6.70302,13.5234 M12.21282,5.0643 L15.25962,5.0643 L15.25962,25.7025 L12.25782,25.7025 L12.25782,23.6787 C11.38992,24.7329 10.20642,25.5483 8.86452,25.8561 C6.55782,26.3802 3.98622,25.7025 2.29902,24.0276 C0.91542,22.7217 0.17142,20.8617 0.00012,18.9894 L0.00012,17.6835 C0.17142,15.8961 0.86922,14.1312 2.13762,12.8379 C3.76992,11.1255 6.29652,10.329 8.61552,10.794 C10.04262,11.058 11.27592,11.9325 12.21012,13.0155 C12.21522,10.365 12.21162,7.7148 12.21282,5.0643" id="Fill-16" fill="#000000"></path>
                    <mask id="mask-4" fill="white">
                        <use xlink:href="#path-3"></use>
                    </mask>
                    <g id="Clip-19"></g>
                    <polygon id="Fill-18" fill="#000000" mask="url(#mask-4)" points="76.2534 25.7025 79.2204 25.7025 79.2204 5.0643 76.2534 5.0643"></polygon>
                    <path d="M18.35658,5.5983 L21.46968,5.5983 C21.46878,6.4377 21.46968,7.2768 21.46878,8.1162 L18.35778,8.1162 C18.35658,7.2768 18.35778,6.4377 18.35658,5.5983" id="Fill-20" fill="#000000" mask="url(#mask-4)"></path>
                    <polygon id="Fill-21" fill="#000000" mask="url(#mask-4)" points="41.8428 8.3076 44.7558 8.3076 44.7558 5.7897 41.8428 5.7897"></polygon>
                    <path d="M48.98604,5.81481 L51.95304,5.81481 C51.95304,7.55091 51.95184,9.28701 51.95304,11.02311 L57.03624,11.02311 L57.03624,13.59081 C55.34154,13.59081 53.64774,13.58961 51.95304,13.59081 C51.95544,16.00491 51.94794,18.41781 51.95664,20.83191 C52.00434,21.50091 52.13574,22.23381 52.63974,22.72041 C52.99224,23.09451 53.51754,23.23821 54.01554,23.27841 C55.00734,23.33571 55.95294,22.94181 56.79984,22.46151 C57.14874,23.23971 57.48534,24.02511 57.84414,24.79941 C56.47704,25.80351 54.70704,26.14251 53.03994,25.99131 C51.88914,25.89741 50.74344,25.37451 50.03934,24.43911 C49.23384,23.37591 48.97854,22.00491 48.95724,20.69781 C48.95364,18.32901 48.95724,15.95991 48.95604,13.59081 L47.37624,13.59081 C47.37504,12.73401 47.37504,11.87841 47.37504,11.02311 L48.98604,11.02311 L48.98604,5.81481 Z" id="Fill-22" fill="#000000" mask="url(#mask-4)"></path>
                    <path d="M30.0891,13.5297 C29.3688,13.701 28.6881,14.0487 28.1367,14.5467 C26.5005,15.9873 26.1417,18.5502 27.0897,20.4729 C27.4938,21.3171 28.1652,22.0299 28.992,22.4703 C30.3843,23.2332 32.1567,23.217 33.5487,22.464 C34.6419,21.861 35.4663,20.7993 35.7765,19.5897 C36.2643,17.8359 35.7978,15.7785 34.4079,14.5551 C33.261,13.5135 31.5801,13.1718 30.0891,13.5297 M24.8571,13.7835 C26.8845,10.794 31.3611,9.6786 34.4517,11.646 C34.9821,11.976 35.4348,12.4113 35.8752,12.8505 C35.8776,12.2415 35.8767,11.6322 35.8752,11.0232 L38.7747,11.0232 C38.7759,15.4557 38.772,19.8888 38.7759,24.3216 C38.7558,26.1489 38.2092,28.02 36.9846,29.4084 C35.5713,31.0383 33.3873,31.8375 31.266,31.8837 C28.782,32.0025 26.2755,31.2507 24.2466,29.8164 C24.6819,29.037 25.1184,28.2603 25.5639,27.4872 C27.156,28.5729 29.0673,29.2908 31.0146,29.2071 C32.2716,29.211 33.5562,28.7781 34.4745,27.9012 C35.3274,27.0771 35.799,25.8798 35.7738,24.6981 C35.7738,24.3228 35.7714,23.9475 35.7726,23.5722 C34.5894,24.9282 32.8158,25.701 31.0221,25.7061 C28.977,25.7586 26.8956,24.9669 25.5024,23.4495 C23.1147,20.8857 22.8507,16.644 24.8571,13.7835" id="Fill-23" fill="#000000" mask="url(#mask-4)"></path>
                    <path d="M64.60728,13.53087 C63.35028,13.79847 62.23308,14.63037 61.62768,15.76467 C60.42708,17.90877 60.89358,20.95677 62.93628,22.42407 C64.37088,23.45217 66.39198,23.56227 67.94058,22.71927 C70.18848,21.53457 70.99128,18.51387 69.99318,16.25247 C69.53538,15.17187 68.66868,14.26017 67.58178,13.80237 C66.65358,13.38837 65.59518,13.36197 64.60728,13.53087 M59.73918,13.13187 C61.83558,10.62417 65.82798,9.86097 68.62968,11.60697 C69.25128,11.98107 69.77658,12.48777 70.26828,13.01697 C70.27818,12.35127 70.27218,11.68707 70.27218,11.02317 L73.17138,11.02317 L73.17138,25.70247 L70.27338,25.70247 C70.27578,25.03197 70.26708,24.36267 70.27968,23.69337 C69.18378,24.97557 67.60788,25.88007 65.90928,26.00007 C63.89928,26.19027 61.81548,25.51827 60.34578,24.12387 C57.40398,21.33957 57.11748,16.22127 59.73918,13.13187" id="Fill-24" fill="#000000" mask="url(#mask-4)"></path>
                    <path d="M18.34032,11.02176 C19.33992,11.02296 20.34042,11.02566 21.33972,11.02056 C21.33732,15.91356 21.33852,20.80806 21.33852,25.70256 L18.34152,25.70256 C18.34032,20.80926 18.34272,15.91506 18.34032,11.02176" id="Fill-25" fill="#000000" mask="url(#mask-4)"></path>
                    <path d="M41.85531,11.02176 C42.85461,11.02296 43.85541,11.02566 44.85471,11.02056 C44.85231,15.91356 44.85351,20.80806 44.85351,25.70106 C43.85421,25.70256 42.85581,25.70256 41.85651,25.70256 C41.85531,20.80926 41.85771,15.91506 41.85531,11.02176" id="Fill-26" fill="#000000" mask="url(#mask-4)"></path>
                    <path d="M156.52299,7.53834 C163.04949,11.30064 169.56879,15.07944 176.08539,18.86184 C168.71199,23.17314 161.30589,27.42984 153.91389,31.70724 C153.90879,30.17754 153.90639,28.64664 153.91389,27.11694 C154.45809,26.79054 154.99719,26.45154 155.56359,26.16384 C155.57349,27.04464 155.56239,27.92514 155.57109,28.80444 C159.95499,26.32644 164.29179,23.75994 168.66189,21.25584 C170.01669,20.44764 171.40239,19.69104 172.74939,18.86814 C167.35599,15.69714 161.92029,12.59904 156.51549,9.44574 C156.52539,8.81034 156.51789,8.17374 156.52299,7.53834" id="Fill-27" fill="#0431A8" mask="url(#mask-4)"></path>
                </g>
            </g>
        </g>
    </g>
</svg>